<mxfile host="app.diagrams.net" agent="Mozilla/5.0 (Windows NT 10.0; Win64; x64) AppleWebKit/537.36 (KHTML, like Gecko) Chrome/131.0.0.0 Safari/537.36" version="25.0.3">
  <diagram name="Page-1" id="7KhryxHFdZAswVd5xD74">
    <mxGraphModel dx="2093" dy="923" grid="1" gridSize="10" guides="1" tooltips="1" connect="1" arrows="1" fold="1" page="1" pageScale="1" pageWidth="850" pageHeight="1100" math="0" shadow="0">
      <root>
        <mxCell id="0" />
        <mxCell id="1" parent="0" />
        <mxCell id="geuPRDKl9PWcOQ5PIFQ6-13" style="edgeStyle=orthogonalEdgeStyle;rounded=0;orthogonalLoop=1;jettySize=auto;html=1;entryX=0.5;entryY=0;entryDx=0;entryDy=0;" edge="1" parent="1" source="geuPRDKl9PWcOQ5PIFQ6-2" target="geuPRDKl9PWcOQ5PIFQ6-3">
          <mxGeometry relative="1" as="geometry" />
        </mxCell>
        <mxCell id="geuPRDKl9PWcOQ5PIFQ6-2" value="show form menu :&lt;div&gt;select car&lt;br&gt;&lt;div&gt;input name&lt;/div&gt;&lt;div&gt;New Game&lt;/div&gt;&lt;div&gt;Exit&lt;/div&gt;&lt;/div&gt;" style="rounded=0;whiteSpace=wrap;html=1;" vertex="1" parent="1">
          <mxGeometry x="358" y="130" width="135" height="80" as="geometry" />
        </mxCell>
        <mxCell id="geuPRDKl9PWcOQ5PIFQ6-14" style="edgeStyle=orthogonalEdgeStyle;rounded=0;orthogonalLoop=1;jettySize=auto;html=1;exitX=1;exitY=0.5;exitDx=0;exitDy=0;entryX=0;entryY=0.5;entryDx=0;entryDy=0;" edge="1" parent="1" source="geuPRDKl9PWcOQ5PIFQ6-3" target="geuPRDKl9PWcOQ5PIFQ6-6">
          <mxGeometry relative="1" as="geometry" />
        </mxCell>
        <mxCell id="geuPRDKl9PWcOQ5PIFQ6-15" style="edgeStyle=orthogonalEdgeStyle;rounded=0;orthogonalLoop=1;jettySize=auto;html=1;exitX=0.5;exitY=1;exitDx=0;exitDy=0;entryX=0.5;entryY=0;entryDx=0;entryDy=0;" edge="1" parent="1" source="geuPRDKl9PWcOQ5PIFQ6-3" target="geuPRDKl9PWcOQ5PIFQ6-8">
          <mxGeometry relative="1" as="geometry" />
        </mxCell>
        <mxCell id="geuPRDKl9PWcOQ5PIFQ6-3" value="" style="rhombus;whiteSpace=wrap;html=1;" vertex="1" parent="1">
          <mxGeometry x="385" y="280" width="80" height="80" as="geometry" />
        </mxCell>
        <mxCell id="geuPRDKl9PWcOQ5PIFQ6-4" value="Skema Project" style="text;html=1;align=center;verticalAlign=middle;resizable=0;points=[];autosize=1;strokeColor=none;fillColor=none;" vertex="1" parent="1">
          <mxGeometry x="375.5" y="40" width="100" height="30" as="geometry" />
        </mxCell>
        <mxCell id="geuPRDKl9PWcOQ5PIFQ6-5" value="Exit" style="text;html=1;align=center;verticalAlign=middle;resizable=0;points=[];autosize=1;strokeColor=none;fillColor=none;" vertex="1" parent="1">
          <mxGeometry x="485" y="290" width="40" height="30" as="geometry" />
        </mxCell>
        <mxCell id="geuPRDKl9PWcOQ5PIFQ6-6" value="Close game" style="rounded=0;whiteSpace=wrap;html=1;" vertex="1" parent="1">
          <mxGeometry x="550" y="290" width="120" height="60" as="geometry" />
        </mxCell>
        <mxCell id="geuPRDKl9PWcOQ5PIFQ6-7" value="new game" style="text;html=1;align=center;verticalAlign=middle;resizable=0;points=[];autosize=1;strokeColor=none;fillColor=none;" vertex="1" parent="1">
          <mxGeometry x="345" y="380" width="80" height="30" as="geometry" />
        </mxCell>
        <mxCell id="geuPRDKl9PWcOQ5PIFQ6-16" style="edgeStyle=orthogonalEdgeStyle;rounded=0;orthogonalLoop=1;jettySize=auto;html=1;exitX=1;exitY=0.5;exitDx=0;exitDy=0;entryX=0;entryY=0.5;entryDx=0;entryDy=0;" edge="1" parent="1" source="geuPRDKl9PWcOQ5PIFQ6-8" target="geuPRDKl9PWcOQ5PIFQ6-9">
          <mxGeometry relative="1" as="geometry" />
        </mxCell>
        <mxCell id="geuPRDKl9PWcOQ5PIFQ6-17" style="edgeStyle=orthogonalEdgeStyle;rounded=0;orthogonalLoop=1;jettySize=auto;html=1;exitX=0.5;exitY=1;exitDx=0;exitDy=0;entryX=0.5;entryY=0;entryDx=0;entryDy=0;" edge="1" parent="1" source="geuPRDKl9PWcOQ5PIFQ6-8" target="geuPRDKl9PWcOQ5PIFQ6-12">
          <mxGeometry relative="1" as="geometry" />
        </mxCell>
        <mxCell id="geuPRDKl9PWcOQ5PIFQ6-8" value="" style="rhombus;whiteSpace=wrap;html=1;" vertex="1" parent="1">
          <mxGeometry x="385" y="430" width="80" height="80" as="geometry" />
        </mxCell>
        <mxCell id="geuPRDKl9PWcOQ5PIFQ6-9" value="muncul warning&lt;div&gt;nama player harus diisi&lt;/div&gt;" style="rounded=0;whiteSpace=wrap;html=1;" vertex="1" parent="1">
          <mxGeometry x="580" y="440" width="120" height="60" as="geometry" />
        </mxCell>
        <mxCell id="geuPRDKl9PWcOQ5PIFQ6-10" value="nama kosong" style="text;html=1;align=center;verticalAlign=middle;resizable=0;points=[];autosize=1;strokeColor=none;fillColor=none;" vertex="1" parent="1">
          <mxGeometry x="465" y="440" width="100" height="30" as="geometry" />
        </mxCell>
        <mxCell id="geuPRDKl9PWcOQ5PIFQ6-11" value="nama diisi" style="text;html=1;align=center;verticalAlign=middle;resizable=0;points=[];autosize=1;strokeColor=none;fillColor=none;" vertex="1" parent="1">
          <mxGeometry x="340" y="520" width="80" height="30" as="geometry" />
        </mxCell>
        <mxCell id="geuPRDKl9PWcOQ5PIFQ6-24" style="edgeStyle=orthogonalEdgeStyle;rounded=0;orthogonalLoop=1;jettySize=auto;html=1;exitX=0.5;exitY=1;exitDx=0;exitDy=0;entryX=0.5;entryY=0;entryDx=0;entryDy=0;" edge="1" parent="1" source="geuPRDKl9PWcOQ5PIFQ6-12" target="geuPRDKl9PWcOQ5PIFQ6-19">
          <mxGeometry relative="1" as="geometry" />
        </mxCell>
        <mxCell id="geuPRDKl9PWcOQ5PIFQ6-12" value="open form game" style="rounded=0;whiteSpace=wrap;html=1;" vertex="1" parent="1">
          <mxGeometry x="365" y="570" width="120" height="60" as="geometry" />
        </mxCell>
        <mxCell id="geuPRDKl9PWcOQ5PIFQ6-25" style="edgeStyle=orthogonalEdgeStyle;rounded=0;orthogonalLoop=1;jettySize=auto;html=1;entryX=0.5;entryY=0;entryDx=0;entryDy=0;" edge="1" parent="1" source="geuPRDKl9PWcOQ5PIFQ6-19" target="geuPRDKl9PWcOQ5PIFQ6-20">
          <mxGeometry relative="1" as="geometry" />
        </mxCell>
        <mxCell id="geuPRDKl9PWcOQ5PIFQ6-19" value="Start&lt;div&gt;pause/resume&lt;/div&gt;&lt;div&gt;reset&lt;/div&gt;&lt;div&gt;back to menu&lt;/div&gt;" style="shape=parallelogram;perimeter=parallelogramPerimeter;whiteSpace=wrap;html=1;fixedSize=1;" vertex="1" parent="1">
          <mxGeometry x="356" y="690" width="138" height="70" as="geometry" />
        </mxCell>
        <mxCell id="geuPRDKl9PWcOQ5PIFQ6-23" style="edgeStyle=orthogonalEdgeStyle;rounded=0;orthogonalLoop=1;jettySize=auto;html=1;exitX=0;exitY=0.5;exitDx=0;exitDy=0;entryX=0;entryY=0.5;entryDx=0;entryDy=0;" edge="1" parent="1" source="geuPRDKl9PWcOQ5PIFQ6-20" target="geuPRDKl9PWcOQ5PIFQ6-2">
          <mxGeometry relative="1" as="geometry">
            <Array as="points">
              <mxPoint x="280" y="858" />
              <mxPoint x="280" y="170" />
            </Array>
          </mxGeometry>
        </mxCell>
        <mxCell id="geuPRDKl9PWcOQ5PIFQ6-20" value="" style="rhombus;whiteSpace=wrap;html=1;" vertex="1" parent="1">
          <mxGeometry x="385" y="818" width="80" height="80" as="geometry" />
        </mxCell>
        <mxCell id="geuPRDKl9PWcOQ5PIFQ6-22" value="back to menu" style="text;html=1;align=center;verticalAlign=middle;resizable=0;points=[];autosize=1;strokeColor=none;fillColor=none;" vertex="1" parent="1">
          <mxGeometry x="285" y="830" width="100" height="30" as="geometry" />
        </mxCell>
        <mxCell id="geuPRDKl9PWcOQ5PIFQ6-26" value="" style="rounded=0;whiteSpace=wrap;html=1;" vertex="1" parent="1">
          <mxGeometry x="150" y="1010" width="580" height="810" as="geometry" />
        </mxCell>
        <mxCell id="geuPRDKl9PWcOQ5PIFQ6-29" value="design menu" style="text;html=1;align=center;verticalAlign=middle;resizable=0;points=[];autosize=1;strokeColor=none;fillColor=none;" vertex="1" parent="1">
          <mxGeometry x="380.5" y="960" width="90" height="30" as="geometry" />
        </mxCell>
        <mxCell id="geuPRDKl9PWcOQ5PIFQ6-30" value="judul game" style="rounded=1;whiteSpace=wrap;html=1;" vertex="1" parent="1">
          <mxGeometry x="285" y="1050" width="305" height="80" as="geometry" />
        </mxCell>
        <mxCell id="geuPRDKl9PWcOQ5PIFQ6-31" value="" style="triangle;whiteSpace=wrap;html=1;" vertex="1" parent="1">
          <mxGeometry x="630" y="1250" width="60" height="80" as="geometry" />
        </mxCell>
        <mxCell id="geuPRDKl9PWcOQ5PIFQ6-32" value="" style="triangle;whiteSpace=wrap;html=1;rotation=-180;" vertex="1" parent="1">
          <mxGeometry x="210" y="1250" width="60" height="80" as="geometry" />
        </mxCell>
        <mxCell id="geuPRDKl9PWcOQ5PIFQ6-33" value="select mobil" style="rounded=1;whiteSpace=wrap;html=1;" vertex="1" parent="1">
          <mxGeometry x="343" y="1220" width="194" height="130" as="geometry" />
        </mxCell>
        <mxCell id="geuPRDKl9PWcOQ5PIFQ6-34" value="input player name" style="rounded=1;whiteSpace=wrap;html=1;" vertex="1" parent="1">
          <mxGeometry x="282.5" y="1430" width="310" height="60" as="geometry" />
        </mxCell>
        <mxCell id="geuPRDKl9PWcOQ5PIFQ6-35" value="new game" style="rounded=1;whiteSpace=wrap;html=1;" vertex="1" parent="1">
          <mxGeometry x="364.5" y="1530" width="146" height="60" as="geometry" />
        </mxCell>
        <mxCell id="geuPRDKl9PWcOQ5PIFQ6-36" value="exit" style="rounded=1;whiteSpace=wrap;html=1;" vertex="1" parent="1">
          <mxGeometry x="365" y="1620" width="145" height="60" as="geometry" />
        </mxCell>
        <mxCell id="geuPRDKl9PWcOQ5PIFQ6-37" value="name car" style="rounded=0;whiteSpace=wrap;html=1;" vertex="1" parent="1">
          <mxGeometry x="370" y="1360" width="140" height="30" as="geometry" />
        </mxCell>
        <mxCell id="geuPRDKl9PWcOQ5PIFQ6-38" value="choose your car" style="rounded=0;whiteSpace=wrap;html=1;" vertex="1" parent="1">
          <mxGeometry x="320" y="1170" width="240" height="30" as="geometry" />
        </mxCell>
        <mxCell id="geuPRDKl9PWcOQ5PIFQ6-39" value="" style="rounded=0;whiteSpace=wrap;html=1;" vertex="1" parent="1">
          <mxGeometry x="150" y="1900" width="580" height="1070" as="geometry" />
        </mxCell>
        <mxCell id="geuPRDKl9PWcOQ5PIFQ6-40" value="design game" style="text;html=1;align=center;verticalAlign=middle;resizable=0;points=[];autosize=1;strokeColor=none;fillColor=none;" vertex="1" parent="1">
          <mxGeometry x="390" y="1858" width="90" height="30" as="geometry" />
        </mxCell>
        <mxCell id="geuPRDKl9PWcOQ5PIFQ6-43" value="score" style="rounded=0;whiteSpace=wrap;html=1;" vertex="1" parent="1">
          <mxGeometry x="348.25" y="2640" width="154.5" height="30" as="geometry" />
        </mxCell>
        <mxCell id="geuPRDKl9PWcOQ5PIFQ6-44" value="" style="rounded=0;whiteSpace=wrap;html=1;" vertex="1" parent="1">
          <mxGeometry x="190" y="1940" width="500" height="670" as="geometry" />
        </mxCell>
        <mxCell id="geuPRDKl9PWcOQ5PIFQ6-45" value="start/pause/resume" style="rounded=1;whiteSpace=wrap;html=1;" vertex="1" parent="1">
          <mxGeometry x="335" y="2700" width="180" height="60" as="geometry" />
        </mxCell>
        <mxCell id="geuPRDKl9PWcOQ5PIFQ6-47" value="reset" style="rounded=1;whiteSpace=wrap;html=1;" vertex="1" parent="1">
          <mxGeometry x="335" y="2780" width="180" height="60" as="geometry" />
        </mxCell>
        <mxCell id="geuPRDKl9PWcOQ5PIFQ6-48" value="back to menu" style="rounded=1;whiteSpace=wrap;html=1;" vertex="1" parent="1">
          <mxGeometry x="335.5" y="2860" width="180" height="60" as="geometry" />
        </mxCell>
      </root>
    </mxGraphModel>
  </diagram>
</mxfile>
